<svg width="96" height="96" xmlns="http://www.w3.org/2000/svg" xmlns:xlink="http://www.w3.org/1999/xlink" xml:space="preserve" overflow="hidden"><g transform="translate(-53 -124)"><path d="M119 204 83 204 83 140 119 140 119 204ZM97 132 105 132C106.1 132 107 132.9 107 134 107 135.1 106.1 136 105 136L97 136C95.9 136 95 135.1 95 134 95 132.9 95.9 132 97 132ZM123 128 79 128C77.9 128 77 128.9 77 130L77 214C77 215.1 77.9 216 79 216L123 216C124.1 216 125 215.1 125 214L125 130C125 128.9 124.1 128 123 128Z" fill="#FFFFFF"/></g></svg>