<svg width="42" height="42" viewBox="0 0 42 42" fill="none" xmlns="http://www.w3.org/2000/svg">
<path fill-rule="evenodd" clip-rule="evenodd" d="M1 21C1 9.95431 9.95431 1 21 1C32.0457 1 41 9.95431 41 21C41 32.0457 32.0457 41 21 41C9.95431 41 1 32.0457 1 21Z" stroke="#161616"/>
<path d="M17.3179 15.2482C17.2959 14.2558 16.5809 13.5 15.42 13.5C14.259 13.5 13.5 14.2558 13.5 15.2482C13.5 16.2199 14.2366 16.9975 15.3759 16.9975H15.3976C16.5809 16.9975 17.3179 16.2199 17.3179 15.2482Z" fill="#161616"/>
<path d="M17.0944 18.379H13.7007V28.4998H17.0944V18.379Z" fill="#161616"/>
<path d="M25.4259 18.1413C27.6591 18.1413 29.3333 19.5881 29.3333 22.6968L29.3332 28.4997H25.9396V23.0851C25.9396 21.7251 25.4486 20.797 24.22 20.797C23.2824 20.797 22.724 21.4227 22.4787 22.0269C22.389 22.2435 22.367 22.5452 22.367 22.8477V28.5H18.9729C18.9729 28.5 19.0176 19.3289 18.9729 18.3792H22.367V19.8127C22.8174 19.1236 23.6241 18.1413 25.4259 18.1413Z" fill="#161616"/>
</svg>
