<svg width="40" height="40" viewBox="0 0 40 40" fill="none" xmlns="http://www.w3.org/2000/svg">
<circle cx="20" cy="20" r="19.5" fill="white" stroke="#161616"/>
<path d="M19.8013 23.802C19.5676 23.8025 19.3412 23.7211 19.1613 23.572L13.1613 18.572C12.9571 18.4023 12.8287 18.1584 12.8043 17.894C12.7799 17.6295 12.8616 17.3662 13.0313 17.162C13.201 16.9578 13.445 16.8294 13.7094 16.805C13.9738 16.7806 14.2371 16.8623 14.4413 17.032L19.8013 21.512L25.1613 17.192C25.2636 17.109 25.3813 17.0469 25.5076 17.0095C25.634 16.9721 25.7665 16.96 25.8975 16.9739C26.0285 16.9879 26.1555 17.0276 26.2711 17.0907C26.3868 17.1539 26.4888 17.2393 26.5713 17.342C26.6629 17.4449 26.7322 17.5655 26.775 17.6964C26.8178 17.8272 26.8331 17.9655 26.82 18.1026C26.8068 18.2397 26.7655 18.3725 26.6987 18.4929C26.6318 18.6132 26.5408 18.7185 26.4313 18.802L20.4313 23.632C20.2462 23.7575 20.0244 23.8174 19.8013 23.802Z" fill="#161616"/>
</svg>
