<svg width="112" height="24" viewBox="0 0 112 24" fill="none" xmlns="http://www.w3.org/2000/svg">
<path d="M88.6958 18.6089C88.6958 21.4806 86.3837 23.8086 83.5318 23.8086C80.6793 23.8086 78.3672 21.4806 78.3672 18.6089C78.3672 15.7373 80.6793 13.4093 83.5318 13.4093C86.3837 13.4093 88.6958 15.7373 88.6958 18.6089Z" fill="#ED2724"/>
<path d="M100.345 18.6089C100.345 21.4806 98.0327 23.8086 95.1802 23.8086C92.3283 23.8086 90.0156 21.4806 90.0156 18.6089C90.0156 15.7373 92.3283 13.4093 95.1802 13.4093C98.0327 13.4093 100.345 15.7373 100.345 18.6089Z" fill="#F9AF0D"/>
<path d="M112.001 18.6089C112.001 21.4806 109.689 23.8086 106.836 23.8086C103.984 23.8086 101.672 21.4806 101.672 18.6089C101.672 15.7373 103.984 13.4093 106.836 13.4093C109.689 13.4093 112.001 15.7373 112.001 18.6089Z" fill="#3E8BD1"/>
<path d="M8.59153 13.3859H5.18214V23.5898H1.41851V13.3859H0V10.1493H1.41851V5.84292C1.41851 3.89572 1.93667 2.44175 2.94593 1.48162C3.95481 0.494429 5.18214 0.000772476 6.62786 0.000772476C7.36423 0.000772476 8.01889 0.137943 8.59153 0.439646V3.86812C7.96442 3.53881 7.4187 3.37458 6.90078 3.37458C5.67317 3.37458 5.18214 4.22466 5.18214 6.39154V10.1493H8.59153V13.3859Z" fill="white"/>
<path d="M10.3359 23.5898V10.1496H14.0999V12.1792C15.0271 10.5335 16.3091 9.71076 17.9727 9.71076C18.491 9.71076 19.0367 9.82032 19.6094 10.0399L19.0912 13.5782C18.5182 13.2765 17.9183 13.1119 17.2909 13.1119C15.1636 13.1119 14.0999 14.4562 14.0999 17.1438V23.5898H10.3359Z" fill="white"/>
<path d="M30.4389 14.2353C29.7025 13.4945 28.8297 13.1107 27.8203 13.1107C26.7566 13.1107 25.8839 13.4674 25.1475 14.2077C24.4384 14.948 24.0838 15.8259 24.0838 16.8685C24.0838 17.9105 24.4384 18.7881 25.1475 19.529C25.8839 20.2696 26.7566 20.6263 27.8203 20.6263C28.8297 20.6263 29.7025 20.2696 30.4389 19.529C31.1752 18.7881 31.557 17.9105 31.557 16.8956C31.557 15.8534 31.1752 14.9759 30.4389 14.2353ZM31.1479 10.1481H34.9119V23.5886H31.1479V21.8331C30.0024 23.2866 28.5569 24 26.7841 24C24.9021 24 23.3471 23.314 22.0926 21.9426C20.8381 20.571 20.2109 18.8709 20.2109 16.8409C20.2109 14.8385 20.8381 13.138 22.0654 11.7665C23.2927 10.3951 24.8477 9.70952 26.7021 9.70952C28.4205 9.70952 29.9206 10.4224 31.1479 11.8762V10.1481Z" fill="white"/>
<path d="M47.9727 14.2353C47.0179 13.4945 45.9815 13.1107 44.9178 13.1107C42.7361 13.1107 41.0994 14.6742 41.0994 16.8685C41.0994 19.0627 42.7361 20.6263 44.9178 20.6263C45.9815 20.6263 47.0179 20.2422 47.9727 19.5017V23.2045C46.7998 23.7251 45.6542 24 44.5361 24C42.4359 24 40.6904 23.314 39.2995 21.9697C37.9085 20.6263 37.2266 18.9256 37.2266 16.9232C37.2266 14.8661 37.9356 13.1654 39.3266 11.7938C40.7449 10.3951 42.4904 9.70952 44.5908 9.70952C45.8181 9.70952 46.9362 9.98368 47.9727 10.5322V14.2353Z" fill="white"/>
<path d="M51.4105 13.3847H49.9375V10.1481H51.4105V5.56759H55.1744V10.1481H57.7927V13.3847H55.1744V17.3895C55.1744 19.6936 55.5017 20.6811 56.8107 20.6811C57.0016 20.6811 57.2473 20.6535 57.4926 20.6264V23.9174C57.0836 23.9725 56.5382 24 55.9107 24C53.0741 24 51.4105 21.9153 51.4105 18.7338V13.3847Z" fill="white"/>
<path d="M69.1654 14.2353C68.4289 13.4945 67.5563 13.1107 66.5474 13.1107C65.4836 13.1107 64.6109 13.4674 63.8744 14.2077C63.1648 14.948 62.8106 15.8259 62.8106 16.8685C62.8106 17.9105 63.1648 18.7881 63.8744 19.529C64.6109 20.2696 65.4836 20.6263 66.5474 20.6263C67.5563 20.6263 68.4289 20.2696 69.1654 19.529C69.9019 18.7881 70.2836 17.9105 70.2836 16.8956C70.2836 15.8534 69.9019 14.9759 69.1654 14.2353ZM69.875 10.1481H73.6387V23.5886H69.875V21.8331C68.7294 23.2866 67.2833 24 65.5111 24C63.6289 24 62.0741 23.314 60.8195 21.9426C59.5649 20.571 58.9375 18.8709 58.9375 16.8409C58.9375 14.8385 59.5649 13.138 60.7923 11.7665C62.0198 10.3951 63.574 9.70952 65.4292 9.70952C67.1471 9.70952 68.647 10.4224 69.875 11.8762V10.1481Z" fill="white"/>
<path d="M81.9537 20.6826C80.645 20.6826 80.2102 19.6117 80.2102 17.389V0.328663H76.4453V18.5702C76.4453 21.861 78.0258 24 81.2191 24C81.6276 24 82.063 23.9735 82.474 23.9171V20.6263C82.2285 20.6532 82.0362 20.6826 81.9537 20.6826Z" fill="white"/>
</svg>
